<svg id="Capa_1" enable-background="new 0 0 512.006 512.006" height="512" viewBox="0 0 512.006 512.006" width="512" xmlns="http://www.w3.org/2000/svg"><g><g><g><path d="m369.825 407.514-54.234-32.132-119.147-.284-20.654 6.256-17.085 68.969 46.795 54.181h101z" fill="#faf8f8"/><path d="m216.021 319.174-16.584 30.061-3.193 27.6c-1.222 10.483 1.64 21.107 8.261 29.326 8.401 10.427 23.807 21.344 51.495 21.344 27.685 0 43.091-10.914 51.492-21.34 3.429-4.255 5.849-9.156 7.217-14.348 1.275-4.839-5.118-11.659-5.709-16.718l.128-57.967z" fill="#f2d1a5"/><path d="m199.43 349.234 3.48-30.06 106.22-2.04 6.46 58.25 4.647 9.407-5.537 7.023-9.41-2.828c-5.741-1.271-5.156-9.233-5.8-13.642l-1.044-9.416c-.44-3.965-4.543-6.37-8.244-4.882-11.499 4.621-22.936 6.958-34.201 6.958-18.551 0-37.571-6.31-56.571-18.77z" fill="#f2bb88"/><path d="m308.22 497.534c15.297-29.171 22.318-66.508 25.506-92.192.54-4.35-2.144-8.448-6.341-9.711l-12.685-3.817c1.28-4.84 1.64-9.93 1.05-14.99l-.16-1.44 20.58 6.19 61.44 18.48c25.37 7.63 13.986 84.567 13.986 84.567l-90.096 19.883h-16.93z" fill="#f0e9e6"/><path d="m454.346 500.715c6.225 0 10.937-5.626 9.845-11.754l-11.489-36.255c-5.54-31.9-23.894-51.562-54.894-60.892l-30.128-7.789c-7.353-2.211-9.151-5.615-9.702 2.043-.14 1.95-7.538 3.534-7.734 5.787-2.378 27.268-9.212 75.401-28.745 112.65h127.09z" fill="#b3e59f"/><path d="m350.24 391.854 32.69 9.83c31 9.33 53.71 34.94 59.25 66.84l6.41 35.98h9.91c6.23 0 10.94-5.63 9.85-11.75l-7.17-40.23c-5.54-31.9-28.25-57.51-59.25-66.84l-35.76-10.75c-7.35-2.21-14.87 2.95-15.42 10.61-.14 1.95-.31 4.06-.51 6.31z" fill="#95d6a4"/><path d="m65.61 454.984 11.347 38.829 113.543 10.691h16.93l-3.65-6.97c-20.33-38.77-26.05-91.99-27.57-113.07-.08-1.05-.21-2.09-.42-3.11l-61.53 18.64c-25.3 7.67-44.12 28.94-48.65 54.99z" fill="#f0e9e6"/><path d="m53.498 504.504c-6.225 0-10.937-5.626-9.845-11.754l7.166-40.226c5.54-31.9 28.25-57.51 59.25-66.84l35.76-10.752c7.353-2.211 14.872 2.951 15.422 10.609 1.838 25.554 8.1 78.638 29.247 118.963z" fill="#b3e59f"/><path d="m376.209 188.418h6.696c16.016 0 29 13.028 29 29.1 0 22.168-17.909 40.138-40 40.138h-231c-22.091 0-40-17.97-40-40.138 0-16.071 12.984-29.1 29-29.1h6.696z" fill="#f2bb88"/><path d="m376.209 188.418c0 50.91-.983 67.633-21.693 96.41-28.566 39.692-64.15 66.65-98.111 66.65s-69.546-26.958-98.111-66.65c-17.3-24.038-20.835-39.665-21.529-73.834-.137-6.736 4.579-17.138 4.579-25.522l-16.84-113.872 263 35.234z" fill="#f2d1a5"/><g fill="#f2bb88"><path d="m131.443 72.534-6.17 6.54c1.95-2.35 4.01-4.52 6.17-6.54z"/><path d="m387.503 106.834-11.19 80.87c-4.83-12.31-13.85-23.8-25.29-31.28-37.69-24.63-77.33 8.86-138.02-45.05-.01 0-.02-.01-.02-.02-.89-.79-1.78-1.6-2.68-2.42-2.65-2.44-6.92-1.39-8.12 2.01-1.07 3.04-2.19 6-3.39 8.87-6.25 14.92-14.54 27.28-28.32 35.41-16.53 9.76-30.48 46.69-33.71 55.77-.13-6.74-.16-14.2-.16-22.58l-11.33-109.34 6.17-6.54z"/><path d="m131.443 72.534-6.17 6.54c1.95-2.35 4.01-4.52 6.17-6.54z"/></g><path d="m199.045 79.089c-1.805 5.684-2.101 18.578-4.255 23.724-6.244 14.918-14.542 27.284-28.319 35.412-18.893 11.148-29.872 50.193-29.872 50.193-24.696 0-35.696-36.895-35.696-62.214 0-59.049 36-89.307 73.362-89.022 4.566.035 9.252.619 14.009 2.024 2.598.767 5.648 4.03 8.281 5.33 2.2-2.332 4.055-6.795 6.421-8.888 21.597-19.109 49.831-28.307 79.816-28.141 12.403.068 23.085 3.668 35.742 6.902 90.947 23.237 107.214 151.279 57.214 169.309 0 0-.936-5.64-2.155-9.427-4.389-13.643-14.021-26.662-26.575-34.866-37.69-24.634-77.325 8.862-138.018-45.049-2.736-2.432-7.13-12.487-9.955-15.287z" fill="#7a6d79"/><path d="m376.213 188.414s-.08-1.19-.23-2.71c-.36-3.79-1.17-7.63-2.4-11.41 26.9-39.97 4.98-141.89-73.03-161.82-9.5-2.43-19.03-3.97-28.44-4.62 15.73-1.12 32.12.45 48.44 4.62 90.95 23.24 105.66 157.91 55.66 175.94z" fill="#685e68"/></g><path d="m256.15 284.129h-.294c-7.456 0-13.5 6.044-13.5 13.5v13.827c0 1.657 1.343 3 3 3h21.294c1.657 0 3-1.343 3-3v-13.827c0-7.455-6.044-13.5-13.5-13.5z" fill="#f2bb88"/></g><g><path d="m182.788 459.327c-1.154-3.978-5.311-6.265-9.292-5.113-3.978 1.154-6.268 5.314-5.114 9.293 7.311 25.202 14.336 43.014 14.632 43.76 1.167 2.944 3.989 4.739 6.974 4.739.919 0 1.854-.17 2.76-.529 3.851-1.525 5.736-5.883 4.212-9.734-.07-.178-7.072-17.942-14.172-42.416z"/><path d="m470.189 450.741c-6.071-35.019-30.955-63.138-64.943-73.386l-36.042-10.856c-5.728-1.724-11.838-.767-16.763 2.627-2.385 1.643-4.33 3.753-5.756 6.166l-23.802-7.231-3.875-32.423c14.5-11.367 28.661-26.332 41.817-44.46 6.354-8.755 10.985-16.484 14.37-24.271 11.703-.648 22.626-5.498 31.008-13.843 9.057-9.015 14.066-21.023 14.107-33.812.031-9.821-3.758-19.068-10.67-26.036-3.723-3.753-8.116-6.594-12.906-8.431 11.518-13.175 17.518-34.304 16.23-59.649-1.289-25.383-9.688-50.884-23.65-71.804-16.299-24.423-39.137-41.008-66.044-47.962-49.609-12.818-97.412-2.37-129.07 27.928-6.386-2.457-13.057-3.697-20.248-3.775-27.451-.326-52.547 14.147-67.178 38.635-2.125 3.556-.965 8.16 2.591 10.285 3.559 2.125 8.162.965 10.285-2.592 11.917-19.943 31.367-31.332 53.45-31.332.229 0 .461.001.69.004 5.372.058 10.334.992 15.066 2.812l3.838 38.591c-6.89 21.034-14.885 36.967-30.786 46.266-19.369 11.327-30.782 27.718-33.399 47.764-1.907-.942-3.739-2.3-5.518-4.085-10.47-10.503-15.895-32.845-15.842-49.485.022-7.008.583-13.781 1.669-20.133.698-4.083-2.046-7.959-6.129-8.656-4.085-.698-7.959 2.046-8.656 6.129-1.226 7.169-1.859 14.777-1.884 22.613-.061 19.418 5.952 45.088 19.486 59.353-3.252 1.698-6.266 3.893-8.941 6.556-6.956 6.924-10.804 16.146-10.835 25.969-.041 12.788 4.894 24.827 13.893 33.9 8.329 8.397 19.22 13.314 30.919 14.035 3.335 7.809 7.918 15.567 14.217 24.363 13.213 18.451 27.479 33.655 42.106 45.168l-3.904 32.684-23.646 7.126c-1.435-2.498-3.426-4.677-5.878-6.366-4.925-3.393-11.035-4.352-16.764-2.627l-36.042 10.856c-13.979 3.762-32.321 15.256-42.965 27.443-11.404 12.899-19.004 28.786-21.972 45.91l-9.333 52.481c-.725 4.078 1.993 7.973 6.071 8.697.444.079.886.117 1.322.117 3.566 0 6.729-2.554 7.375-6.188l9.339-52.514c2.495-14.395 8.855-27.713 18.393-38.521 9.645-10.132 20.991-18.497 36.097-23.064l36.042-10.856c1.838-.555 3.249.149 3.927.615.678.468 1.836 1.537 1.973 3.452.965 13.44 3.227 28.466 6.724 44.657.875 4.049 4.867 6.623 8.914 5.748 4.049-.874 6.623-4.865 5.748-8.914-2.803-12.978-4.762-25.112-5.866-36.198l19.625-5.914c.776 9.375 4.266 18.369 10.088 25.607 8.934 11.105 26.204 24.345 57.742 24.345 31.542 0 48.813-13.241 57.745-24.35 5.876-7.306 9.375-16.4 10.105-25.879l19.672 5.976c-.887 21.412-9.409 61.392-16.966 84.811-3.332 9.574-7.094 18.391-11.186 26.206-1.921 3.67-.503 8.202 3.166 10.123 1.111.581 2.3.857 3.472.857 2.702-.001 5.312-1.465 6.651-4.023 4.466-8.532 8.553-18.11 12.146-28.47 8.749-26.098 17.69-72.941 18.168-94.583.137-1.915 1.295-2.984 1.973-3.452.678-.467 2.091-1.17 3.927-.615l36.04 10.855c28.517 8.598 49.397 32.196 54.498 61.618l9.333 52.481c.726 4.078 4.623 6.798 8.697 6.07 4.079-.725 6.796-4.619 6.071-8.697zm-64.882-231.535c-.028 8.786-3.469 17.036-9.689 23.229-4.274 4.254-9.508 7.185-15.209 8.594 3.236-13.978 3.831-30.165 3.979-53.633 5.522.203 10.685 2.437 14.6 6.384 4.093 4.127 6.338 9.605 6.319 15.426zm-288.905 22.346c-6.182-6.231-9.57-14.502-9.542-23.289.018-5.82 2.297-11.284 6.417-15.385 3.94-3.922 9.117-6.126 14.64-6.294 0 23.471.493 39.661 3.641 53.661-5.693-1.445-10.909-4.412-15.156-8.693zm46.681 40.23c-19.491-27.219-20.313-42.809-20.155-92.686-.11-18.056 8.986-33.871 26.553-43.956 17.876-10.455 27.412-27.203 34.12-44.96 16.918 15.109 33.941 25.155 51.778 30.593 3.964 1.21 8.153-1.025 9.361-4.986 1.208-3.963-1.025-8.153-4.987-9.361-17.801-5.427-34.913-16.285-52.244-33.124l-3.81-38.311c27.856-27.325 70.853-36.715 115.816-25.096 50.881 13.149 76.342 64.167 78.467 106.003 1.157 22.786-4.454 41.557-14.732 51.262-3.319-17.163-13.702-31.306-31.471-42.98-16.976-11.152-33.879-11.771-51.774-12.426-2.571-.095-5.177-.189-7.824-.319-4.143-.188-7.655 2.987-7.858 7.125-.202 4.137 2.987 7.655 7.125 7.857 2.709.133 5.377.23 8.009.326 16.426.602 30.612 1.12 44.086 9.974 17.657 11.6 25.881 25.301 25.882 43.117-.157 49.859-1.08 65.444-20.74 92.534-29.366 40.466-63.186 63.655-92.822 63.655-.06 0-.12 0-.18 0-29.68-.095-63.431-23.51-92.6-64.241zm138.976 118.728c-10.005 12.441-25.501 18.75-46.056 18.75-20.552 0-36.047-6.308-46.054-18.747-5.287-6.572-7.736-15.339-6.722-24.03l3.705-31.024c15.41 9.684 33.527 15.625 48.923 15.563 15.925 0 32.648-5.434 49.209-15.639l3.715 31.086c1.014 8.708-1.435 17.47-6.72 24.041z"/><path d="m241.572 263.16c4.707 1.588 9.657 2.383 14.608 2.383 4.853 0 9.708-.764 14.332-2.292 3.933-1.299 6.068-5.541 4.769-9.474-1.299-3.934-5.543-6.066-9.475-4.769-6.274 2.073-13.177 2.053-19.438-.062-3.923-1.326-8.18.784-9.504 4.708-1.325 3.926.783 8.182 4.708 9.506z"/><path d="m219.431 197.585c-2.929-2.928-7.678-2.928-10.606 0l-7.197 7.197-7.197-7.197c-2.929-2.928-7.678-2.928-10.606 0-2.929 2.93-2.929 7.678 0 10.607l7.196 7.196-7.196 7.196c-2.929 2.93-2.929 7.678 0 10.607 1.464 1.464 3.384 2.196 5.303 2.196s3.839-.732 5.303-2.196l7.197-7.197 7.197 7.197c1.464 1.464 3.384 2.196 5.303 2.196s3.839-.732 5.303-2.196c2.929-2.93 2.929-7.678 0-10.607l-7.196-7.196 7.196-7.196c2.929-2.93 2.929-7.678 0-10.607z"/><path d="m292.575 233.192c1.464 1.464 3.384 2.196 5.303 2.196s3.839-.732 5.303-2.196l7.197-7.197 7.197 7.197c1.464 1.464 3.384 2.196 5.303 2.196s3.839-.732 5.303-2.196c2.929-2.93 2.929-7.678 0-10.607l-7.196-7.196 7.196-7.196c2.929-2.93 2.929-7.678 0-10.607-2.929-2.928-7.678-2.928-10.606 0l-7.197 7.197-7.197-7.197c-2.929-2.928-7.678-2.928-10.606 0-2.929 2.93-2.929 7.678 0 10.607l7.196 7.196-7.196 7.196c-2.93 2.929-2.93 7.677 0 10.607z"/><path d="m277.15 311.456v-13.826c0-11.579-9.42-21-21-21h-.294c-11.58 0-21 9.421-21 21v13.826c0 5.79 4.71 10.5 10.5 10.5h21.294c5.789 0 10.5-4.71 10.5-10.5zm-15-4.5h-12.294v-9.326c0-3.309 2.691-6 6-6h.294c3.309 0 6 2.691 6 6z"/><path d="m442.503 340.004c4.142 0 7.5-3.357 7.5-7.5v-113c0-4.143-3.358-7.5-7.5-7.5s-7.5 3.357-7.5 7.5v113c0 4.142 3.358 7.5 7.5 7.5z"/><path d="m472.503 302.184c-4.142 0-7.5 3.357-7.5 7.5v82.819c0 4.143 3.358 7.5 7.5 7.5s7.5-3.357 7.5-7.5v-82.819c0-4.142-3.358-7.5-7.5-7.5z"/><path d="m472.503 182.004c-4.142 0-7.5 3.357-7.5 7.5v85.074c0 4.143 3.358 7.5 7.5 7.5s7.5-3.357 7.5-7.5v-85.074c0-4.143-3.358-7.5-7.5-7.5z"/><path d="m69.503 340.004c4.142 0 7.5-3.357 7.5-7.5v-113c0-4.143-3.358-7.5-7.5-7.5s-7.5 3.357-7.5 7.5v113c0 4.142 3.358 7.5 7.5 7.5z"/><path d="m39.503 400.004c4.142 0 7.5-3.357 7.5-7.5v-203c0-4.143-3.358-7.5-7.5-7.5s-7.5 3.357-7.5 7.5v203c0 4.142 3.358 7.5 7.5 7.5z"/></g></g></svg>